<svg xmlns="http://www.w3.org/2000/svg" width="64" height="80" viewBox="0 0 397 497"><path d="M223.727 83.354c15.318 11.005 27.169 27.227 30.351 46.14 2.102 20.843-2.125 39.571-15.273 56-12.251 13.755-27.749 23.65-46.549 24.889-20.062.858-36.886-3.137-52.275-16.576a255.128 255.128 0 0 1-4.625-4.563l-2.145-2.078c-13.849-14.299-17.487-33.033-17.195-52.218.736-18.356 10.552-33.106 23.34-45.668 23.288-21.457 58.139-22.34 84.371-5.926Z"/><path d="M47.11 492.299c-7.027-5.188-11.502-10.535-12.894-19.324-1.126-17.682 8.612-31.658 18.311-45.485l2.705-3.896c7.028-10.081 14.36-19.904 21.936-29.58 2.276-2.917 4.53-5.85 6.781-8.786 8.196-10.685 16.469-21.299 24.882-31.813 9.437-11.804 9.437-11.804 18.807-23.661 1.204-1.531 2.416-3.057 3.627-4.583l2.199-2.807 1.937-2.458c1.58-2.342 2.457-4.446 3.252-7.146-6.873 1.794-11.803 4.939-17.573 9.037-2.926 2.039-5.89 3.886-8.96 5.699-6.67 4.001-12.956 8.498-19.295 12.997a311.043 311.043 0 0 1-12.728 8.547l-5.573 3.563c-1.365.873-2.73 1.744-4.097 2.612a249.38 249.38 0 0 0-11.457 7.798c-10.908 7.455-23.101 11.713-36.282 9.664-6.884-1.628-13.956-4.987-18.064-10.913-5.435-11.181-5.337-19.65-2.347-31.613 4.835-13.825 16.026-26.349 25.995-36.781l1.773-1.865c9.099-9.544 18.484-18.709 28.202-27.62 2.1-1.933 4.171-3.895 6.24-5.863 4.695-4.459 9.437-8.868 14.178-13.28a1516.55 1516.55 0 0 0 10.493-9.855c5.76-5.467 11.605-10.842 17.441-16.229 4.938-4.562 9.843-9.155 14.719-13.783 3.389-3.198 6.817-6.355 10.24-9.516a729.765 729.765 0 0 0 6.839-6.44c5.032-4.779 10.15-9.462 15.263-14.154 4.409-4.049 8.781-8.134 13.119-12.258a662.819 662.819 0 0 1 19.327-17.623c5.186-4.548 10.193-9.241 15.131-14.057 4.122-4.006 8.373-7.844 12.678-11.653 3.795-3.373 7.464-6.854 11.098-10.399 4.91-4.787 9.973-9.354 15.138-13.862 3.945-3.46 7.75-7.033 11.5-10.703 5.202-5.086 10.604-9.895 16.105-14.655A323.157 323.157 0 0 0 280.03 58.33c3.36-3.174 6.816-6.238 10.268-9.312a560.038 560.038 0 0 0 9.839-8.987c4.76-4.427 9.63-8.716 14.538-12.976a544.265 544.265 0 0 0 9.356-8.279c18.521-16.79 18.521-16.79 26.728-18.778 6.242.317 6.242.317 8.443 2.379 2.262 4.25.424 9.385-.604 13.856-1.586 5.034-3.468 9.929-5.408 14.834-.493 1.272-.985 2.546-1.476 3.82-.964 2.496-1.935 4.99-2.91 7.482-1.358 3.47-2.703 6.945-4.039 10.424l-1.116 2.905c-1.756 4.727-3.254 9.503-4.651 14.348l-1.071 3.586c-13.387 47.064-8.548 96.396 8.129 141.966a438.4 438.4 0 0 1 2.089 5.894c8.842 25.103 21.275 48.694 35.148 71.342a665.968 665.968 0 0 1 8.084 13.555l1.054 1.786c2.566 4.467 3.952 8.124 3.855 13.284-.768 2.796-.768 2.796-2.813 4.342-4.956 1.86-9.349 1.747-14.353.212-9.655-4.897-17.921-11.154-25.667-18.714l-2.854-2.763c-6.368-6.27-12.128-12.929-17.725-19.888a398.068 398.068 0 0 0-3.973-4.817c-4.792-5.738-9.444-11.543-13.867-17.574-1.392-1.969-1.392-1.969-3.338-3.17l.276-1.981-2.834-1.404.276-1.981-1.661-1.015c-2.21-1.655-3.389-3.244-4.94-5.519-6.768-9.199-16.448-19.224-28.115-21.073-8.087-.908-15.091.938-21.867 5.465-7.638 6.332-13.731 14.271-19.13 22.529l-1.766 2.684c-9.124 14.064-17.48 28.624-25.871 43.133l-1.061 1.833a711.06 711.06 0 0 0-10.86 19.454c-4.709 8.755-9.768 17.298-14.828 25.853-2.004 3.395-4.006 6.791-6.008 10.187l-1.512 2.563a3049.01 3049.01 0 0 0-9.367 15.998c-50.229 86.398-50.229 86.398-70.663 107.111l-1.954 2c-11.303 10.682-28.559 15.556-42.7 7.376Z"/></svg>